# xmcd CD database file
#
# Track frame offsets:
#	150
#	13759
#	29005
#	41275
#	69857
#	85039
#	99241
#	114594
#	128897
#	142200
#	155824
#	169692
#	185674
#	199364
#	208150
#	222502
#	237088
#	251258
#	264569
#	276643
#
# Disc length: 3872 seconds
#
# Revision: 0
# Processed by: cddbd v1.5.1PL2 Copyright (c) Steve Scherf et al.
# Submitted via: CDex 1.51
#
DISCID=2f0f1e14
DTITLE=Various Artist - Ella Fitzgerald and Louis Armstrong, CD 2
DYEAR=1900
DGENRE=Jazz
TTITLE0=Ella Fitzgerald:  That's my Desire
TTITLE1=Louis Armstrong: Aint Misbehavin'
TTITLE2=Ella Fitzgerald: Baby it's cold outside
TTITLE3=Louis Armstrong: How hight the Moon
TTITLE4=Louis Armstrong: Just a Gigolo
TTITLE5=Ella Fitzgerald: Love You're Just a Laugh
TTITLE6=Louis Armstrong: High Society
TTITLE7=Ella Fitzgerald: Holiday in Harlem
TTITLE8=Louis Armstrong: It takes two to tango
TTITLE9=Ella Fitzgerald: Sing Song Swing
TTITLE10=Ella Fitzgerald: Rhythm and Romance
TTITLE11=Louis Armstrong: I can't give you anything but Love
TTITLE12=Louis Armstrong: Down in Hony Tonk Town
TTITLE13=Ella Fitzgerald: Lover come back to me
TTITLE14=Louis Armstrong: West End Blues
TTITLE15=Ella Fitzgerald: Dipsy Doodle
TTITLE16=Louis Armstrong: I've got a Heart ful of Rhythm
TTITLE17=Ella Fitzgerald: Imagination
TTITLE18=Louis Armstrong: St. Louis Blues
TTITLE19=Ella Fitzgerald: You can't be mine and Sombody else's too
EXTD=
EXTT0=
EXTT1=
EXTT2=
EXTT3=
EXTT4=
EXTT5=
EXTT6=
EXTT7=
EXTT8=
EXTT9=
EXTT10=
EXTT11=
EXTT12=
EXTT13=
EXTT14=
EXTT15=
EXTT16=
EXTT17=
EXTT18=
EXTT19=
PLAYORDER=
